<svg width="547" height="184" viewBox="0 0 547 184" fill="none" xmlns="http://www.w3.org/2000/svg">
<rect x="7" y="7" width="174.354" height="165.879" fill="#0A8D61"/>
<path d="M79.1898 91.5996C79.1898 89.6465 80.1664 88.377 82.1195 87.791C82.6078 87.6934 82.9984 87.6445 83.2914 87.6445C85.2445 87.6445 86.514 88.5723 87.1 90.4277C87.1976 90.8184 87.2465 91.209 87.2465 91.5996C87.2465 93.5527 86.3187 94.8223 84.4633 95.4082C84.0726 95.5059 83.682 95.5547 83.2914 95.5547C81.2406 95.5547 79.9222 94.627 79.3363 92.7715C79.2386 92.2832 79.1898 91.8926 79.1898 91.5996ZM80.3617 177V101.414H86.2211V177H80.3617ZM98.9652 177V121.775C98.9652 117.186 101.065 112.742 105.264 108.445C110.147 103.465 116.153 100.975 123.282 100.975V106.834C117.618 106.834 112.784 109.031 108.78 113.426C106.143 116.355 104.825 119.383 104.825 122.508V177H98.9652ZM129.434 106.834V100.975C138.223 100.975 145.059 104.539 149.942 111.668C152.481 115.281 153.75 118.65 153.75 121.775V177H147.891V122.508C147.891 119.285 146.231 115.965 142.911 112.547C139.102 108.836 134.61 106.932 129.434 106.834Z" fill="black"/>
<path d="M192.864 166.152V108.29C192.864 103.603 194.964 99.0128 199.163 94.5207C204.339 89.2472 210.735 86.6105 218.352 86.6105V98.7687C213.372 98.7687 209.563 100.722 206.927 104.628C205.852 106.288 205.315 107.997 205.315 109.755V166.152H192.864ZM224.798 98.7687V86.6105C233.88 86.6105 240.96 90.2726 246.038 97.5968C248.772 101.405 250.14 104.97 250.14 108.29V166.152H237.688V109.755C237.688 106.728 236.175 104.042 233.147 101.698C230.706 99.7453 227.923 98.7687 224.798 98.7687ZM260.54 147.694C260.54 153.066 263.177 157.607 268.45 161.318C272.942 164.443 278.216 166.005 284.27 166.005V154.579C275.774 154.384 271.477 151.161 271.38 144.911V140.956C271.477 138.808 272.063 137.245 273.138 136.269C274.31 135.194 279.534 133.534 288.811 131.288C296.038 129.53 300.921 127.968 303.46 126.601V143.446C303.46 149.794 300.384 153.456 294.231 154.433C293.255 154.53 292.327 154.579 291.448 154.579V166.005C298.284 165.907 303.655 164.198 307.561 160.878C310.589 164.296 314.544 166.005 319.427 166.005V154.433C316.888 154.237 315.569 152.626 315.472 149.599V109.462C315.472 103.212 313.079 97.7433 308.294 93.0558C303.802 88.7589 298.186 86.6105 291.448 86.6105V97.8898C296.038 97.8898 299.456 99.7453 301.702 103.456C302.874 105.409 303.46 107.558 303.46 109.902V112.685C303.46 115.126 297.649 117.958 286.028 121.181C275.579 124.111 269.573 125.966 268.011 126.747C263.03 129.677 260.54 134.316 260.54 140.663V147.694ZM261.565 106.532L272.405 110.634C272.405 105.165 274.651 101.357 279.143 99.2082C280.804 98.4269 282.561 98.0363 284.417 98.0363V86.6105C277.679 86.6105 271.917 89.0519 267.132 93.9347C263.421 97.6457 261.565 101.845 261.565 106.532ZM326.751 99.6476V87.7824H336.419V62.4406H348.87V87.7824H358.245V99.7941H348.87V141.835C348.87 148.769 351.702 152.626 357.366 153.407C358.44 153.603 359.515 153.7 360.589 153.7H362.64L365.423 166.152H360.149C348.138 166.054 340.765 161.562 338.03 152.675C337.054 149.355 336.565 145.253 336.565 140.37L336.419 99.6476H326.751ZM371.722 145.058V87.05H384.173V143.593C384.173 147.109 385.931 150.038 389.446 152.382C391.79 153.847 394.378 154.579 397.21 154.579V166.884C387.835 166.884 380.608 163.222 375.53 155.898C372.991 152.187 371.722 148.573 371.722 145.058ZM403.655 166.884V154.579C408.929 154.579 412.786 152.48 415.227 148.28C416.106 146.718 416.546 145.155 416.546 143.593V87.05H428.997V145.058C428.997 149.648 426.897 154.189 422.698 158.681C417.62 164.052 411.272 166.786 403.655 166.884ZM440.716 166.152V86.9035H453.167V97.7433C455.706 93.4464 459.515 90.2726 464.593 88.2218C467.327 87.1476 470.013 86.6105 472.649 86.6105H475.286L472.356 98.6222C466.985 98.7199 462.2 101.601 458.001 107.265C454.778 111.757 453.167 116.396 453.167 121.181V166.152H440.716ZM483.196 144.472V108.144C483.294 103.652 485.442 99.2082 489.642 94.8136C494.72 89.6378 500.872 87.0011 508.099 86.9035V98.4757C503.411 98.4757 499.749 100.527 497.112 104.628C496.038 106.386 495.501 107.997 495.501 109.462V119.423H528.313V109.462C528.313 105.068 526.067 101.845 521.575 99.7941C519.524 98.8175 517.425 98.3293 515.276 98.3293V86.9035C522.015 86.9035 528.02 89.2961 533.294 94.0812C537.688 98.2804 539.934 102.919 540.032 107.997V131.288H495.501V144.472C495.501 147.206 497.063 149.745 500.188 152.089C502.727 153.847 505.413 154.726 508.245 154.726V166.152C499.358 166.152 492.376 162.538 487.298 155.312C484.563 151.503 483.196 147.89 483.196 144.472ZM515.276 166.152V154.579C521.136 154.579 525.53 152.04 528.46 146.962C529.046 145.888 529.485 144.862 529.778 143.886L540.179 147.694C538.421 154.433 534.417 159.511 528.167 162.929C524.163 165.077 519.866 166.152 515.276 166.152Z" fill="white"/>
<path d="M19.5 30.5L2 24.5L4 4.5L29.5 2L19.5 30.5Z" stroke="white" stroke-width="3"/>
</svg>
